<svg xmlns="http://www.w3.org/2000/svg" xmlns:xlink="http://www.w3.org/1999/xlink" width="500" zoomAndPan="magnify" viewBox="0 0 375 374.999991" height="500" preserveAspectRatio="xMidYMid meet" version="1.0"><defs><g/><clipPath id="9c6178c7ff"><path d="M 31.03125 42.785156 L 329.53125 42.785156 L 329.53125 213.035156 L 31.03125 213.035156 Z M 31.03125 42.785156 " clip-rule="nonzero"/></clipPath><clipPath id="e33c74f9c4"><path d="M 45.070312 70 L 104 70 L 104 128 L 45.070312 128 Z M 45.070312 70 " clip-rule="nonzero"/></clipPath><clipPath id="4debfed841"><path d="M 96.160156 79.871094 L 111.058594 79.871094 L 111.058594 94.832031 L 96.160156 94.832031 Z M 96.160156 79.871094 " clip-rule="nonzero"/></clipPath><clipPath id="1646284a28"><path d="M 45.082031 122.058594 L 51.070312 122.058594 L 51.070312 128.050781 L 45.082031 128.050781 Z M 45.082031 122.058594 " clip-rule="nonzero"/></clipPath><clipPath id="713ad4337f"><path d="M 84 69.550781 L 100 69.550781 L 100 85 L 84 85 Z M 84 69.550781 " clip-rule="nonzero"/></clipPath><clipPath id="e0d3917513"><path d="M 101 69.550781 L 108 69.550781 L 108 76 L 101 76 Z M 101 69.550781 " clip-rule="nonzero"/></clipPath></defs><rect x="-37.5" width="450" fill="#ffffff" y="-37.499999" height="449.999989" fill-opacity="1"/><rect x="-37.5" width="450" fill="#ffffff" y="-37.499999" height="449.999989" fill-opacity="1"/><g clip-path="url(#9c6178c7ff)"><path fill="#43aee4" d="M 250.378906 120.335938 C 252.289062 123.648438 233.867188 197.023438 174.714844 195.964844 C 223.289062 169.742188 207.933594 132.675781 250.378906 120.335938 M 241.648438 183.546875 L 313.929688 183.546875 L 313.929688 190.113281 L 241.648438 190.113281 Z M 253.921875 159.980469 L 313.929688 159.980469 L 313.929688 166.550781 L 253.921875 166.550781 Z M 264.710938 136.417969 L 313.929688 136.417969 L 313.929688 142.988281 L 264.710938 142.988281 Z M 269.738281 112.855469 L 313.929688 112.855469 L 313.929688 119.421875 L 269.738281 119.421875 Z M 274.613281 89.289062 L 313.929688 89.289062 L 313.929688 95.855469 L 274.613281 95.855469 Z M 283.984375 65.722656 L 313.929688 65.722656 L 313.929688 72.289062 L 283.984375 72.289062 Z M 243.425781 42.785156 L 329.824219 42.785156 L 329.824219 213.046875 L 165.453125 213.046875 L 165.453125 192.949219 C 206.605469 175.878906 204.058594 128.917969 242.140625 111.476562 C 253.835938 106.121094 260.679688 96.085938 259.027344 90.4375 C 255.78125 79.375 260.378906 43.488281 213 60.140625 C 165.621094 76.800781 172.789062 99.882812 174.140625 151.695312 C 174.5625 167.929688 170.808594 178.238281 165.453125 184.742188 C 156.945312 195.078125 144.386719 195.796875 138.140625 195.410156 C 136.890625 195.289062 135.613281 195.140625 134.3125 194.960938 C 106.449219 187.757812 100.023438 170.601562 87.300781 166.742188 C 76.761719 163.546875 44.363281 161.722656 31.011719 146.882812 C 54.425781 142.273438 77.054688 116.546875 99.015625 139.871094 C 94.363281 105.835938 124.304688 103.699219 137.09375 76.863281 C 137.09375 76.863281 148.222656 107.558594 136.085938 127.113281 C 127.78125 140.488281 125.003906 151.042969 128.585938 160.214844 C 130.441406 164.960938 135.316406 167.664062 140.488281 167.878906 C 133.308594 172.703125 127.34375 174.726562 121.585938 176.777344 C 165.953125 175.597656 156.25 142.882812 156.328125 109.316406 C 156.445312 58.476562 203.054688 42.785156 243.425781 42.785156 Z M 243.425781 42.785156 " fill-opacity="1" fill-rule="evenodd"/></g><g clip-path="url(#e33c74f9c4)"><path fill="#ffc800" d="M 89.054688 99.902344 L 103.417969 98.992188 C 76.917969 97.800781 75.832031 95.640625 74.671875 70.113281 C 73.679688 96.410156 71.304688 97.6875 45.929688 98.644531 C 72.429688 99.835938 73.515625 102 74.671875 127.523438 C 75.828125 115.113281 73.542969 101.984375 89.054688 99.902344 " fill-opacity="1" fill-rule="nonzero"/></g><path fill="#ffc800" d="M 60.523438 116.042969 L 64.242188 115.808594 C 56.933594 115.570312 57.15625 114.402344 56.796875 108.328125 C 56.609375 115.585938 55.390625 115.40625 49.351562 115.71875 C 56.65625 115.957031 56.4375 117.125 56.796875 123.199219 C 56.988281 119.691406 56.835938 116.449219 60.523438 116.042969 " fill-opacity="1" fill-rule="nonzero"/><g clip-path="url(#4debfed841)"><path fill="#ffc800" d="M 107.339844 87.652344 L 111.058594 87.417969 C 103.753906 87.179688 103.972656 86.011719 103.613281 79.9375 C 103.425781 87.195312 102.210938 87.015625 96.171875 87.328125 C 103.476562 87.566406 103.257812 88.734375 103.613281 94.808594 C 103.808594 91.300781 103.65625 88.058594 107.339844 87.652344 " fill-opacity="1" fill-rule="nonzero"/></g><g clip-path="url(#1646284a28)"><path fill="#ffc800" d="M 49.5625 125.179688 L 51.054688 125.085938 C 48.03125 125.085938 48.191406 124.15625 48.066406 122.085938 C 48.089844 125.085938 47.144531 124.941406 45.082031 125.050781 C 48.101562 125.046875 47.941406 125.976562 48.066406 128.050781 C 48.105469 126.980469 48.078125 125.300781 49.5625 125.179688 " fill-opacity="1" fill-rule="nonzero"/></g><g clip-path="url(#713ad4337f)"><path fill="#ffc800" d="M 95.804688 77.363281 L 99.523438 77.128906 C 92.21875 76.890625 92.4375 75.722656 92.078125 69.648438 C 91.890625 76.90625 90.675781 76.726562 84.636719 77.039062 C 91.941406 77.277344 91.722656 78.445312 92.078125 84.519531 C 92.273438 81.011719 92.121094 77.773438 95.804688 77.363281 " fill-opacity="1" fill-rule="nonzero"/></g><path fill="#ffc800" d="M 87.695312 87.484375 L 89.164062 87.390625 C 86.15625 87.402344 86.351562 86.433594 86.222656 84.433594 C 86.257812 87.359375 85.308594 87.257812 83.28125 87.355469 C 86.289062 87.34375 86.089844 88.3125 86.222656 90.3125 C 86.257812 89.261719 86.234375 87.601562 87.695312 87.484375 " fill-opacity="1" fill-rule="nonzero"/><g clip-path="url(#e0d3917513)"><path fill="#ffc800" d="M 106.023438 72.597656 L 107.492188 72.503906 C 104.484375 72.515625 104.683594 71.546875 104.550781 69.550781 C 104.585938 72.472656 103.636719 72.375 101.609375 72.46875 C 104.617188 72.457031 104.421875 73.425781 104.550781 75.425781 C 104.589844 74.375 104.566406 72.714844 106.023438 72.597656 " fill-opacity="1" fill-rule="nonzero"/></g><g fill="#1c1d33" fill-opacity="1"><g transform="translate(81.842438, 268.53669)"><g><path d="M 19.8125 0.890625 C 16.425781 0.890625 13.441406 0.273438 10.859375 -0.953125 C 8.273438 -2.179688 6.253906 -3.9375 4.796875 -6.21875 C 3.335938 -8.507812 2.609375 -11.242188 2.609375 -14.421875 L 12.3125 -14.421875 C 12.3125 -12.253906 13.0625 -10.648438 14.5625 -9.609375 C 16.070312 -8.578125 17.800781 -8.0625 19.75 -8.0625 C 20.976562 -8.0625 22.128906 -8.257812 23.203125 -8.65625 C 24.285156 -9.0625 25.175781 -9.65625 25.875 -10.4375 C 26.570312 -11.226562 26.921875 -12.171875 26.921875 -13.265625 C 26.921875 -14.410156 26.519531 -15.3125 25.71875 -15.96875 C 24.914062 -16.625 23.835938 -17.160156 22.484375 -17.578125 C 21.128906 -18.003906 19.644531 -18.410156 18.03125 -18.796875 C 16.382812 -19.179688 14.691406 -19.644531 12.953125 -20.1875 C 11.210938 -20.738281 9.601562 -21.46875 8.125 -22.375 C 6.644531 -23.289062 5.457031 -24.519531 4.5625 -26.0625 C 3.675781 -27.613281 3.234375 -29.570312 3.234375 -31.9375 C 3.234375 -36.21875 4.679688 -39.507812 7.578125 -41.8125 C 10.484375 -44.125 14.414062 -45.28125 19.375 -45.28125 C 24.445312 -45.28125 28.378906 -44 31.171875 -41.4375 C 33.972656 -38.875 35.375 -35.390625 35.375 -30.984375 L 25.84375 -30.984375 C 25.84375 -32.890625 25.164062 -34.296875 23.8125 -35.203125 C 22.457031 -36.117188 20.890625 -36.578125 19.109375 -36.578125 C 17.546875 -36.578125 16.109375 -36.238281 14.796875 -35.5625 C 13.484375 -34.882812 12.828125 -33.828125 12.828125 -32.390625 C 12.828125 -31.328125 13.21875 -30.488281 14 -29.875 C 14.78125 -29.257812 15.816406 -28.75 17.109375 -28.34375 C 18.398438 -27.945312 19.832031 -27.554688 21.40625 -27.171875 C 23.09375 -26.753906 24.828125 -26.257812 26.609375 -25.6875 C 28.390625 -25.113281 30.039062 -24.335938 31.5625 -23.359375 C 33.082031 -22.390625 34.316406 -21.097656 35.265625 -19.484375 C 36.222656 -17.878906 36.703125 -15.851562 36.703125 -13.40625 C 36.703125 -10.1875 35.925781 -7.515625 34.375 -5.390625 C 32.832031 -3.273438 30.789062 -1.695312 28.25 -0.65625 C 25.71875 0.375 22.90625 0.890625 19.8125 0.890625 Z M 19.8125 0.890625 "/></g></g></g><g fill="#1c1d33" fill-opacity="1"><g transform="translate(118.60392, 268.53669)"><g><path d="M 24.0625 -35.109375 C 27.957031 -35.109375 31.023438 -33.816406 33.265625 -31.234375 C 35.515625 -28.660156 36.640625 -25.191406 36.640625 -20.828125 L 36.640625 0 L 27.375 0 L 27.375 -19.296875 C 27.375 -21.835938 26.90625 -23.753906 25.96875 -25.046875 C 25.039062 -26.335938 23.519531 -26.984375 21.40625 -26.984375 C 19.113281 -26.984375 17.257812 -26.1875 15.84375 -24.59375 C 14.425781 -23.007812 13.71875 -20.820312 13.71875 -18.03125 L 13.71875 0 L 4.4375 0 L 4.4375 -46.671875 L 13.71875 -46.671875 L 13.71875 -31.109375 C 15.03125 -32.335938 16.570312 -33.3125 18.34375 -34.03125 C 20.125 -34.75 22.03125 -35.109375 24.0625 -35.109375 Z M 24.0625 -35.109375 "/></g></g></g><g fill="#1c1d33" fill-opacity="1"><g transform="translate(156.762233, 268.53669)"><g/></g></g><g fill="#1c1d33" fill-opacity="1"><g transform="translate(169.396687, 268.53669)"><g><path d="M 21.90625 -44.453125 C 25.164062 -44.453125 28.171875 -43.898438 30.921875 -42.796875 C 33.671875 -41.691406 36.050781 -40.144531 38.0625 -38.15625 C 40.070312 -36.164062 41.640625 -33.828125 42.765625 -31.140625 C 43.890625 -28.453125 44.453125 -25.5 44.453125 -22.28125 C 44.453125 -19.070312 43.890625 -16.109375 42.765625 -13.390625 C 41.640625 -10.679688 40.070312 -8.320312 38.0625 -6.3125 C 36.050781 -4.300781 33.671875 -2.742188 30.921875 -1.640625 C 28.171875 -0.546875 25.164062 0 21.90625 0 L 5.078125 0 L 5.078125 -44.453125 Z M 21.65625 -8.953125 C 24.195312 -8.953125 26.441406 -9.519531 28.390625 -10.65625 C 30.335938 -11.800781 31.859375 -13.378906 32.953125 -15.390625 C 34.054688 -17.410156 34.609375 -19.707031 34.609375 -22.28125 C 34.609375 -24.863281 34.054688 -27.148438 32.953125 -29.140625 C 31.859375 -31.128906 30.335938 -32.6875 28.390625 -33.8125 C 26.441406 -34.9375 24.195312 -35.5 21.65625 -35.5 L 14.734375 -35.5 L 14.734375 -8.953125 Z M 21.65625 -8.953125 "/></g></g></g><g fill="#1c1d33" fill-opacity="1"><g transform="translate(213.904216, 268.53669)"><g><path d="M 20.765625 0.953125 C 17.210938 0.953125 14.035156 0.160156 11.234375 -1.421875 C 8.441406 -3.015625 6.238281 -5.175781 4.625 -7.90625 C 3.019531 -10.632812 2.21875 -13.710938 2.21875 -17.140625 C 2.21875 -20.617188 3.019531 -23.722656 4.625 -26.453125 C 6.238281 -29.179688 8.441406 -31.328125 11.234375 -32.890625 C 14.035156 -34.460938 17.210938 -35.25 20.765625 -35.25 C 24.273438 -35.25 27.425781 -34.460938 30.21875 -32.890625 C 33.019531 -31.328125 35.222656 -29.179688 36.828125 -26.453125 C 38.441406 -23.722656 39.25 -20.617188 39.25 -17.140625 C 39.25 -13.710938 38.441406 -10.632812 36.828125 -7.90625 C 35.222656 -5.175781 33.019531 -3.015625 30.21875 -1.421875 C 27.425781 0.160156 24.273438 0.953125 20.765625 0.953125 Z M 20.765625 -7.75 C 23.429688 -7.75 25.609375 -8.613281 27.296875 -10.34375 C 28.992188 -12.082031 29.84375 -14.347656 29.84375 -17.140625 C 29.84375 -19.941406 28.992188 -22.207031 27.296875 -23.9375 C 25.609375 -25.675781 23.429688 -26.546875 20.765625 -26.546875 C 18.054688 -26.546875 15.851562 -25.675781 14.15625 -23.9375 C 12.46875 -22.207031 11.625 -19.941406 11.625 -17.140625 C 11.625 -14.347656 12.46875 -12.082031 14.15625 -10.34375 C 15.851562 -8.613281 18.054688 -7.75 20.765625 -7.75 Z M 20.765625 -7.75 "/></g></g></g><g fill="#1c1d33" fill-opacity="1"><g transform="translate(252.824437, 268.53669)"><g><path d="M 20.390625 0.953125 C 16.953125 0.953125 13.859375 0.148438 11.109375 -1.453125 C 8.359375 -3.066406 6.1875 -5.25 4.59375 -8 C 3.007812 -10.75 2.21875 -13.835938 2.21875 -17.265625 C 2.21875 -20.703125 3.007812 -23.773438 4.59375 -26.484375 C 6.1875 -29.191406 8.359375 -31.328125 11.109375 -32.890625 C 13.859375 -34.460938 16.972656 -35.25 20.453125 -35.25 C 23.410156 -35.25 26.101562 -34.664062 28.53125 -33.5 C 30.96875 -32.332031 33 -30.691406 34.625 -28.578125 C 36.257812 -26.460938 37.351562 -24.003906 37.90625 -21.203125 L 28.703125 -21.203125 C 27.941406 -22.898438 26.828125 -24.210938 25.359375 -25.140625 C 23.898438 -26.078125 22.242188 -26.546875 20.390625 -26.546875 C 18.734375 -26.546875 17.238281 -26.128906 15.90625 -25.296875 C 14.570312 -24.472656 13.523438 -23.363281 12.765625 -21.96875 C 12.003906 -20.570312 11.625 -18.984375 11.625 -17.203125 C 11.625 -15.429688 12.003906 -13.832031 12.765625 -12.40625 C 13.523438 -10.988281 14.570312 -9.859375 15.90625 -9.015625 C 17.238281 -8.171875 18.734375 -7.75 20.390625 -7.75 C 22.285156 -7.75 23.941406 -8.242188 25.359375 -9.234375 C 26.785156 -10.234375 27.898438 -11.664062 28.703125 -13.53125 L 38.03125 -13.53125 C 37.488281 -10.644531 36.390625 -8.113281 34.734375 -5.9375 C 33.085938 -3.757812 31.035156 -2.066406 28.578125 -0.859375 C 26.117188 0.347656 23.390625 0.953125 20.390625 0.953125 Z M 20.390625 0.953125 "/></g></g></g><g fill="#1c1d33" fill-opacity="1"><g transform="translate(289.966875, 268.53669)"><g><path d="M 16.640625 0.953125 C 13.753906 0.953125 11.234375 0.445312 9.078125 -0.5625 C 6.921875 -1.582031 5.238281 -3.015625 4.03125 -4.859375 C 2.820312 -6.703125 2.21875 -8.847656 2.21875 -11.296875 L 11.234375 -11.296875 C 11.273438 -9.773438 11.828125 -8.632812 12.890625 -7.875 C 13.953125 -7.113281 15.304688 -6.734375 16.953125 -6.734375 C 18.265625 -6.734375 19.40625 -7.019531 20.375 -7.59375 C 21.351562 -8.164062 21.84375 -9.019531 21.84375 -10.15625 C 21.84375 -11.34375 21.195312 -12.179688 19.90625 -12.671875 C 18.613281 -13.160156 17.054688 -13.550781 15.234375 -13.84375 C 13.878906 -14.050781 12.472656 -14.34375 11.015625 -14.71875 C 9.554688 -15.101562 8.210938 -15.65625 6.984375 -16.375 C 5.753906 -17.101562 4.75 -18.097656 3.96875 -19.359375 C 3.1875 -20.628906 2.796875 -22.285156 2.796875 -24.328125 C 2.796875 -26.484375 3.375 -28.382812 4.53125 -30.03125 C 5.695312 -31.6875 7.304688 -32.96875 9.359375 -33.875 C 11.421875 -34.789062 13.847656 -35.25 16.640625 -35.25 C 19.390625 -35.25 21.789062 -34.769531 23.84375 -33.8125 C 25.894531 -32.863281 27.492188 -31.53125 28.640625 -29.8125 C 29.785156 -28.09375 30.359375 -26.09375 30.359375 -23.8125 L 21.53125 -23.8125 C 21.53125 -25.164062 21.070312 -26.179688 20.15625 -26.859375 C 19.25 -27.535156 17.992188 -27.875 16.390625 -27.875 C 14.941406 -27.875 13.816406 -27.566406 13.015625 -26.953125 C 12.210938 -26.335938 11.8125 -25.546875 11.8125 -24.578125 C 11.8125 -23.429688 12.445312 -22.644531 13.71875 -22.21875 C 14.988281 -21.800781 16.507812 -21.441406 18.28125 -21.140625 C 19.6875 -20.890625 21.128906 -20.582031 22.609375 -20.21875 C 24.085938 -19.863281 25.460938 -19.328125 26.734375 -18.609375 C 28.003906 -17.890625 29.03125 -16.894531 29.8125 -15.625 C 30.59375 -14.351562 30.984375 -12.679688 30.984375 -10.609375 C 30.984375 -8.273438 30.390625 -6.238281 29.203125 -4.5 C 28.023438 -2.769531 26.351562 -1.425781 24.1875 -0.46875 C 22.03125 0.476562 19.515625 0.953125 16.640625 0.953125 Z M 16.640625 0.953125 "/></g></g></g><g fill="#233dff" fill-opacity="1"><g transform="translate(109.259049, 311.101768)"><g><path d="M 5.28125 -1.71875 C 5.539062 -1.71875 5.820312 -1.757812 6.125 -1.84375 C 6.425781 -1.925781 6.6875 -2.0625 6.90625 -2.25 C 7.132812 -2.445312 7.25 -2.707031 7.25 -3.03125 C 7.25 -3.332031 7.128906 -3.570312 6.890625 -3.75 C 6.660156 -3.9375 6.351562 -4.085938 5.96875 -4.203125 C 5.59375 -4.328125 5.175781 -4.441406 4.71875 -4.546875 C 4.269531 -4.648438 3.816406 -4.773438 3.359375 -4.921875 C 2.910156 -5.066406 2.492188 -5.257812 2.109375 -5.5 C 1.734375 -5.738281 1.425781 -6.046875 1.1875 -6.421875 C 0.957031 -6.804688 0.84375 -7.289062 0.84375 -7.875 C 0.84375 -8.457031 0.960938 -8.957031 1.203125 -9.375 C 1.441406 -9.789062 1.757812 -10.132812 2.15625 -10.40625 C 2.550781 -10.6875 2.992188 -10.894531 3.484375 -11.03125 C 3.984375 -11.164062 4.484375 -11.234375 4.984375 -11.234375 C 5.742188 -11.234375 6.453125 -11.113281 7.109375 -10.875 C 7.773438 -10.632812 8.316406 -10.253906 8.734375 -9.734375 C 9.148438 -9.222656 9.367188 -8.546875 9.390625 -7.703125 L 7.03125 -7.703125 C 6.96875 -8.273438 6.765625 -8.671875 6.421875 -8.890625 C 6.085938 -9.117188 5.617188 -9.234375 5.015625 -9.234375 C 4.785156 -9.234375 4.539062 -9.191406 4.28125 -9.109375 C 4.03125 -9.035156 3.816406 -8.914062 3.640625 -8.75 C 3.460938 -8.582031 3.375 -8.359375 3.375 -8.078125 C 3.375 -7.796875 3.488281 -7.570312 3.71875 -7.40625 C 3.957031 -7.238281 4.265625 -7.101562 4.640625 -7 C 5.015625 -6.894531 5.429688 -6.789062 5.890625 -6.6875 C 6.347656 -6.59375 6.800781 -6.472656 7.25 -6.328125 C 7.695312 -6.191406 8.109375 -6 8.484375 -5.75 C 8.867188 -5.507812 9.175781 -5.191406 9.40625 -4.796875 C 9.644531 -4.410156 9.765625 -3.914062 9.765625 -3.3125 C 9.765625 -2.65625 9.632812 -2.097656 9.375 -1.640625 C 9.113281 -1.179688 8.765625 -0.8125 8.328125 -0.53125 C 7.890625 -0.257812 7.394531 -0.0625 6.84375 0.0625 C 6.300781 0.195312 5.742188 0.265625 5.171875 0.265625 C 4.359375 0.265625 3.597656 0.128906 2.890625 -0.140625 C 2.179688 -0.421875 1.601562 -0.847656 1.15625 -1.421875 C 0.71875 -2.003906 0.492188 -2.742188 0.484375 -3.640625 L 2.96875 -3.640625 C 3 -2.984375 3.238281 -2.5 3.6875 -2.1875 C 4.144531 -1.875 4.675781 -1.71875 5.28125 -1.71875 Z M 5.28125 -1.71875 "/></g></g></g><g fill="#233dff" fill-opacity="1"><g transform="translate(130.512606, 311.101768)"><g><path d="M 3.421875 0 L 0.984375 0 L 0.984375 -11.078125 L 3.421875 -11.078125 Z M 3.421875 0 "/></g></g></g><g fill="#233dff" fill-opacity="1"><g transform="translate(145.910531, 311.101768)"><g><path d="M 9.671875 0 L 7.234375 0 L 3.421875 -6.90625 L 3.421875 0 L 0.984375 0 L 0.984375 -11.078125 L 3.421875 -11.078125 L 7.234375 -4.171875 L 7.234375 -11.078125 L 9.671875 -11.078125 Z M 9.671875 0 "/></g></g></g><g fill="#233dff" fill-opacity="1"><g transform="translate(167.55446, 311.101768)"><g><path d="M 8.96875 -3.765625 L 11.6875 -3.765625 C 11.4375 -3.003906 11.046875 -2.328125 10.515625 -1.734375 C 9.984375 -1.140625 9.351562 -0.675781 8.625 -0.34375 C 7.894531 -0.0078125 7.109375 0.15625 6.265625 0.15625 C 5.484375 0.15625 4.75 0.0078125 4.0625 -0.28125 C 3.375 -0.570312 2.765625 -0.976562 2.234375 -1.5 C 1.710938 -2.03125 1.300781 -2.640625 1 -3.328125 C 0.707031 -4.015625 0.5625 -4.75 0.5625 -5.53125 C 0.5625 -6.3125 0.707031 -7.046875 1 -7.734375 C 1.300781 -8.429688 1.710938 -9.039062 2.234375 -9.5625 C 2.765625 -10.09375 3.375 -10.503906 4.0625 -10.796875 C 4.75 -11.085938 5.484375 -11.234375 6.265625 -11.234375 C 7.109375 -11.234375 7.890625 -11.0625 8.609375 -10.71875 C 9.335938 -10.382812 9.96875 -9.925781 10.5 -9.34375 C 11.03125 -8.769531 11.421875 -8.101562 11.671875 -7.34375 L 8.953125 -7.34375 C 8.722656 -7.84375 8.359375 -8.234375 7.859375 -8.515625 C 7.359375 -8.804688 6.828125 -8.953125 6.265625 -8.953125 C 5.671875 -8.953125 5.128906 -8.796875 4.640625 -8.484375 C 4.148438 -8.179688 3.757812 -7.769531 3.46875 -7.25 C 3.1875 -6.738281 3.046875 -6.164062 3.046875 -5.53125 C 3.046875 -4.90625 3.1875 -4.332031 3.46875 -3.8125 C 3.757812 -3.300781 4.148438 -2.890625 4.640625 -2.578125 C 5.128906 -2.265625 5.671875 -2.109375 6.265625 -2.109375 C 6.835938 -2.109375 7.375 -2.257812 7.875 -2.5625 C 8.375 -2.875 8.738281 -3.273438 8.96875 -3.765625 Z M 8.96875 -3.765625 "/></g></g></g><g fill="#233dff" fill-opacity="1"><g transform="translate(190.646026, 311.101768)"><g><path d="M 7.390625 -2.21875 L 7.390625 0 L 0.984375 0 L 0.984375 -11.078125 L 7.390625 -11.078125 L 7.390625 -8.859375 L 3.421875 -8.859375 L 3.421875 -6.65625 L 7.234375 -6.65625 L 7.234375 -4.4375 L 3.421875 -4.4375 L 3.421875 -2.21875 Z M 7.390625 -2.21875 "/></g></g></g><g fill="#233dff" fill-opacity="1"><g transform="translate(210.01277, 311.101768)"><g/></g></g><g fill="#233dff" fill-opacity="1"><g transform="translate(225.085382, 311.101768)"><g><path d="M 7.765625 0 L -0.25 0 L 4.140625 -5.59375 C 4.285156 -5.78125 4.445312 -5.984375 4.625 -6.203125 C 4.800781 -6.421875 4.953125 -6.648438 5.078125 -6.890625 C 5.203125 -7.140625 5.265625 -7.390625 5.265625 -7.640625 C 5.265625 -8.035156 5.144531 -8.347656 4.90625 -8.578125 C 4.675781 -8.804688 4.375 -8.921875 4 -8.921875 C 3.601562 -8.921875 3.28125 -8.789062 3.03125 -8.53125 C 2.78125 -8.269531 2.644531 -7.851562 2.625 -7.28125 L 0.328125 -7.28125 C 0.347656 -8 0.492188 -8.65625 0.765625 -9.25 C 1.046875 -9.84375 1.453125 -10.320312 1.984375 -10.6875 C 2.523438 -11.050781 3.191406 -11.234375 3.984375 -11.234375 C 4.703125 -11.234375 5.332031 -11.082031 5.875 -10.78125 C 6.414062 -10.488281 6.835938 -10.066406 7.140625 -9.515625 C 7.441406 -8.972656 7.59375 -8.347656 7.59375 -7.640625 C 7.59375 -7.085938 7.488281 -6.582031 7.28125 -6.125 C 7.082031 -5.675781 6.832031 -5.253906 6.53125 -4.859375 C 6.226562 -4.472656 5.910156 -4.078125 5.578125 -3.671875 L 4.40625 -2.21875 L 7.765625 -2.21875 Z M 7.765625 0 "/></g></g></g><g fill="#233dff" fill-opacity="1"><g transform="translate(244.500923, 311.101768)"><g><path d="M 5.015625 -9.015625 C 4.617188 -9.015625 4.289062 -8.898438 4.03125 -8.671875 C 3.769531 -8.453125 3.5625 -8.160156 3.40625 -7.796875 C 3.257812 -7.441406 3.15625 -7.0625 3.09375 -6.65625 C 3.039062 -6.25 3.015625 -5.867188 3.015625 -5.515625 C 3.015625 -5.140625 3.039062 -4.75 3.09375 -4.34375 C 3.15625 -3.9375 3.257812 -3.554688 3.40625 -3.203125 C 3.5625 -2.847656 3.769531 -2.5625 4.03125 -2.34375 C 4.289062 -2.125 4.617188 -2.015625 5.015625 -2.015625 C 5.398438 -2.015625 5.71875 -2.125 5.96875 -2.34375 C 6.226562 -2.5625 6.4375 -2.847656 6.59375 -3.203125 C 6.75 -3.554688 6.859375 -3.929688 6.921875 -4.328125 C 6.984375 -4.734375 7.015625 -5.117188 7.015625 -5.484375 C 7.015625 -5.847656 6.984375 -6.234375 6.921875 -6.640625 C 6.867188 -7.046875 6.769531 -7.429688 6.625 -7.796875 C 6.476562 -8.160156 6.269531 -8.453125 6 -8.671875 C 5.738281 -8.898438 5.410156 -9.015625 5.015625 -9.015625 Z M 5.015625 0.203125 C 4.367188 0.203125 3.800781 0.0820312 3.3125 -0.15625 C 2.832031 -0.40625 2.414062 -0.734375 2.0625 -1.140625 C 1.71875 -1.554688 1.429688 -2.007812 1.203125 -2.5 C 0.984375 -3 0.820312 -3.503906 0.71875 -4.015625 C 0.613281 -4.535156 0.5625 -5.03125 0.5625 -5.5 C 0.5625 -5.90625 0.609375 -6.359375 0.703125 -6.859375 C 0.796875 -7.367188 0.945312 -7.878906 1.15625 -8.390625 C 1.363281 -8.898438 1.640625 -9.367188 1.984375 -9.796875 C 2.328125 -10.222656 2.75 -10.566406 3.25 -10.828125 C 3.75 -11.097656 4.335938 -11.234375 5.015625 -11.234375 C 5.691406 -11.234375 6.273438 -11.097656 6.765625 -10.828125 C 7.265625 -10.566406 7.6875 -10.222656 8.03125 -9.796875 C 8.382812 -9.367188 8.664062 -8.898438 8.875 -8.390625 C 9.082031 -7.878906 9.226562 -7.367188 9.3125 -6.859375 C 9.40625 -6.359375 9.453125 -5.90625 9.453125 -5.5 C 9.453125 -5.03125 9.398438 -4.535156 9.296875 -4.015625 C 9.203125 -3.503906 9.039062 -3 8.8125 -2.5 C 8.59375 -2.007812 8.304688 -1.554688 7.953125 -1.140625 C 7.609375 -0.734375 7.191406 -0.40625 6.703125 -0.15625 C 6.210938 0.0820312 5.648438 0.203125 5.015625 0.203125 Z M 5.015625 0.203125 "/></g></g></g><g fill="#233dff" fill-opacity="1"><g transform="translate(265.526762, 311.101768)"><g><path d="M 7.765625 0 L -0.25 0 L 4.140625 -5.59375 C 4.285156 -5.78125 4.445312 -5.984375 4.625 -6.203125 C 4.800781 -6.421875 4.953125 -6.648438 5.078125 -6.890625 C 5.203125 -7.140625 5.265625 -7.390625 5.265625 -7.640625 C 5.265625 -8.035156 5.144531 -8.347656 4.90625 -8.578125 C 4.675781 -8.804688 4.375 -8.921875 4 -8.921875 C 3.601562 -8.921875 3.28125 -8.789062 3.03125 -8.53125 C 2.78125 -8.269531 2.644531 -7.851562 2.625 -7.28125 L 0.328125 -7.28125 C 0.347656 -8 0.492188 -8.65625 0.765625 -9.25 C 1.046875 -9.84375 1.453125 -10.320312 1.984375 -10.6875 C 2.523438 -11.050781 3.191406 -11.234375 3.984375 -11.234375 C 4.703125 -11.234375 5.332031 -11.082031 5.875 -10.78125 C 6.414062 -10.488281 6.835938 -10.066406 7.140625 -9.515625 C 7.441406 -8.972656 7.59375 -8.347656 7.59375 -7.640625 C 7.59375 -7.085938 7.488281 -6.582031 7.28125 -6.125 C 7.082031 -5.675781 6.832031 -5.253906 6.53125 -4.859375 C 6.226562 -4.472656 5.910156 -4.078125 5.578125 -3.671875 L 4.40625 -2.21875 L 7.765625 -2.21875 Z M 7.765625 0 "/></g></g></g><g fill="#233dff" fill-opacity="1"><g transform="translate(284.942303, 311.101768)"><g><path d="M 4.359375 -8.890625 L 3.96875 -7.390625 C 4.957031 -7.484375 5.769531 -7.378906 6.40625 -7.078125 C 7.039062 -6.773438 7.515625 -6.332031 7.828125 -5.75 C 8.140625 -5.164062 8.296875 -4.492188 8.296875 -3.734375 C 8.296875 -2.910156 8.09375 -2.207031 7.6875 -1.625 C 7.28125 -1.050781 6.738281 -0.609375 6.0625 -0.296875 C 5.394531 0.00390625 4.660156 0.15625 3.859375 0.15625 C 3.128906 0.15625 2.410156 -0.0195312 1.703125 -0.375 C 1.003906 -0.738281 0.382812 -1.382812 -0.15625 -2.3125 L 1.71875 -3.609375 C 2.007812 -3.179688 2.273438 -2.859375 2.515625 -2.640625 C 2.765625 -2.421875 3.003906 -2.273438 3.234375 -2.203125 C 3.460938 -2.128906 3.679688 -2.09375 3.890625 -2.09375 C 4.222656 -2.09375 4.539062 -2.148438 4.84375 -2.265625 C 5.15625 -2.378906 5.40625 -2.554688 5.59375 -2.796875 C 5.78125 -3.035156 5.875 -3.351562 5.875 -3.75 C 5.875 -4.351562 5.671875 -4.789062 5.265625 -5.0625 C 4.867188 -5.332031 4.410156 -5.46875 3.890625 -5.46875 C 3.765625 -5.46875 3.601562 -5.453125 3.40625 -5.421875 C 3.21875 -5.390625 2.925781 -5.316406 2.53125 -5.203125 L 1.28125 -6.140625 L 2.65625 -11.078125 L 7.859375 -11.078125 L 7.859375 -8.890625 Z M 4.359375 -8.890625 "/></g></g></g></svg>