<svg xmlns="http://www.w3.org/2000/svg" xmlns:xlink="http://www.w3.org/1999/xlink" viewBox="0,0,256,256" width="400px" height="400px" fill-rule="nonzero"><g fill="none" fill-rule="nonzero" stroke="none" stroke-width="1" stroke-linecap="butt" stroke-linejoin="miter" stroke-miterlimit="10" stroke-dasharray="" stroke-dashoffset="0" font-family="none" font-weight="none" font-size="none" text-anchor="none" style="mix-blend-mode: normal"><g transform="scale(2.56,2.56)"><path d="M15,74.5v-48.5c0,-2.761 2.239,-5 5,-5h13h12c2.761,0 5,2.239 5,5v4h25c1.105,0 2,0.895 2,2v8h-54z" fill="#2e4fc4"></path><path d="M15,74.667l8,-34.667h62l-9,39h-61" fill="#aacefe"></path><path d="M48.346,55h-21.428c-0.152,0 -0.296,-0.069 -0.391,-0.188c-0.095,-0.119 -0.13,-0.275 -0.096,-0.423l2.082,-9.002c0.052,-0.226 0.254,-0.387 0.487,-0.387h21.469c0.153,0 0.297,0.07 0.392,0.189c0.095,0.12 0.129,0.276 0.095,0.424l-2.123,9.002c-0.053,0.226 -0.255,0.385 -0.487,0.385z" fill="#fdff93"></path><path d="M76,80h-61c-0.552,0 -1,-0.447 -1,-1v-53c0,-3.309 2.691,-6 6,-6h25c3.309,0 6,2.691 6,6v3h24c1.654,0 3,1.346 3,3v7h7c0.305,0 0.593,0.139 0.783,0.378c0.189,0.238 0.26,0.55 0.192,0.847l-9,39c-0.105,0.454 -0.509,0.775 -0.975,0.775zM16,78h59.205l8.539,-37h-59.949l-7.795,33.781zM20,22c-2.206,0 -4,1.794 -4,4v39.887l6.025,-26.111c0.105,-0.455 0.509,-0.776 0.975,-0.776h53v-7c0,-0.552 -0.449,-1 -1,-1h-25c-0.552,0 -1,-0.447 -1,-1v-4c0,-2.206 -1.794,-4 -4,-4z" fill="#1f212b"></path><path d="M46.5,30c-0.276,0 -0.5,-0.224 -0.5,-0.5v-3.5c0,-0.552 -0.449,-1 -1,-1h-0.5c-0.276,0 -0.5,-0.224 -0.5,-0.5c0,-0.276 0.224,-0.5 0.5,-0.5h0.5c1.103,0 2,0.897 2,2v3.5c0,0.276 -0.224,0.5 -0.5,0.5zM41.5,25h-2c-0.276,0 -0.5,-0.224 -0.5,-0.5c0,-0.276 0.224,-0.5 0.5,-0.5h2c0.276,0 0.5,0.224 0.5,0.5c0,0.276 -0.224,0.5 -0.5,0.5zM18.5,34c-0.276,0 -0.5,-0.224 -0.5,-0.5v-7.5c0,-1.103 0.897,-2 2,-2h16.5c0.276,0 0.5,0.224 0.5,0.5c0,0.276 -0.224,0.5 -0.5,0.5h-16.5c-0.551,0 -1,0.448 -1,1v7.5c0,0.276 -0.224,0.5 -0.5,0.5z" fill="#1f212b"></path><g fill="#1f212b"><path d="M48.346,55h-21.428c-0.152,0 -0.296,-0.069 -0.391,-0.188c-0.095,-0.119 -0.13,-0.275 -0.096,-0.423l2.082,-9.002c0.052,-0.226 0.254,-0.387 0.487,-0.387h11.5c0.276,0 0.5,0.223 0.5,0.499c0,0.276 -0.224,0.499 -0.5,0.499h-11.102l-1.851,8.004h20.403l1.887,-8.004h-1.837c-0.276,0 -0.5,-0.223 -0.5,-0.499c0,-0.276 0.223,-0.499 0.5,-0.499h2.469c0.153,0 0.297,0.07 0.392,0.189c0.095,0.12 0.129,0.276 0.095,0.424l-2.123,9.002c-0.053,0.226 -0.255,0.385 -0.487,0.385z"></path></g><g fill="#1f212b"><path d="M45.5,46h-2c-0.276,0 -0.5,-0.224 -0.5,-0.5c0,-0.276 0.224,-0.5 0.5,-0.5h2c0.276,0 0.5,0.224 0.5,0.5c0,0.276 -0.224,0.5 -0.5,0.5z"></path></g></g></g></svg>